<?xml version="1.0" encoding="utf-8"?>
<svg version="1.1" xmlns="http://www.w3.org/2000/svg" viewBox="0 0 1417.32 1417.32" xml:space="preserve">
<rect width="1417.32" height="1417.32" rx="280" fill="#2D5F6B"/>
<g fill="#ffffff">
	<path d="M905.69,477.8c63.39,0,114.77-50.93,114.77-113.76c0-62.83-51.38-113.77-114.77-113.77
		c-63.38,0-114.77,50.93-114.77,113.77C790.92,426.87,842.3,477.8,905.69,477.8z M905.69,321.49c23.71,0,42.93,19.05,42.93,42.55
		c0,23.5-19.22,42.55-42.93,42.55c-23.71,0-42.92-19.05-42.92-42.55C862.76,340.54,881.98,321.49,905.69,321.49z"/>
	<path d="M331.17,1092.14c5.04,8.39,10.16,16.35,15.27,23.93c-5.1-7.95-10.17-16.06-15.05-24.05
		C331.33,1092.05,331.22,1092.12,331.17,1092.14z"/>
	<path d="M968.1,998.59c-0.4-0.47-0.73-0.92-1.13-1.4l0.8-1.32c8.08-13.07,15.71-26.64,22.68-40.34
		c14.34-28.21,26.81-58.09,37.05-88.85c12.53-37.91,20.21-72.34,23.46-105.23c3.28-33.32,2.99-63.3-0.86-91.6
		c-4.4-32.13-13.2-59.96-26.89-85.05c-16.57-30.43-40.66-51.23-71.59-61.86c-14.61-5.06-30.07-7.68-45.97-7.8h-0.11h0
		c-16,0.11-31.5,2.73-46.11,7.82c-30.93,10.62-55.02,31.43-71.59,61.86c-12.57,23.05-20.82,48.58-25.54,77.47
		c-0.41,2.53-0.98,4.93-1.34,7.52c-3.82,27.99-4.08,57.62-0.91,90.48c0.04,0.41,0.02,0.76,0.05,1.16
		c3.26,32.84,10.93,67.26,23.46,105.21c10.19,30.72,22.66,60.6,37.04,88.85c7.11,13.99,14.74,27.56,22.65,40.37l0.91,1.47l0.13,0.08
		c-28.63,44.32-78.61,73.77-135.64,73.77c-57.02,0-107.01-29.45-135.64-73.77l0.13-0.08l0.91-1.47c7.9-12.8,15.54-26.38,22.65-40.37
		c14.38-28.24,26.85-58.13,37.04-88.85c12.53-37.94,20.21-72.36,23.46-105.21c0.04-0.41,0.02-0.76,0.05-1.16
		c3.17-32.85,2.91-62.48-0.91-90.48c-0.36-2.59-0.92-4.98-1.34-7.52c-4.71-28.89-12.97-54.42-25.54-77.47
		c-16.57-30.43-40.66-51.24-71.59-61.86c-14.61-5.08-30.11-7.7-46.11-7.82h0h-0.11c-15.9,0.11-31.37,2.73-45.97,7.8
		c-30.93,10.63-55.02,31.43-71.59,61.86c-13.7,25.09-22.49,52.92-26.89,85.05c-3.85,28.3-4.13,58.28-0.86,91.6
		c3.26,32.88,10.93,67.32,23.46,105.23c10.23,30.75,22.7,60.64,37.04,88.85c6.97,13.7,14.61,27.27,22.68,40.34l0.81,1.32
		c-0.4,0.47-0.72,0.92-1.13,1.4c-43.3,50.67-110.22,89.13-117.84,93.43c4.89,7.99,9.95,16.11,15.05,24.05
		c13.35,19.82,26.56,36.74,37.77,50.01c0.26,0.31,0.55,0.66,0.81,0.97c31.72-17.86,58.61-35.76,78.86-50.88
		c11.5-8.17,23.08-17.52,34.93-28.09c2.73-2.43,5.43-4.76,8.19-7.34c0.85-0.79,1.66-1.45,2.51-2.25l2.13-2.13l3.31,3.09
		c1.18,1.1,2.33,2.04,3.51,3.12c47.04,51.36,114.71,83.81,190.2,83.81c0,0,0,0,0,0c0,0,0,0,0,0c75.49,0,143.17-32.45,190.2-83.81
		c1.17-1.08,2.33-2.01,3.51-3.12l3.31-3.09l2.13,2.13c0.85,0.8,1.66,1.46,2.51,2.25c2.76,2.58,5.47,4.9,8.19,7.34
		c11.85,10.57,23.43,19.92,34.93,28.09c20.25,15.12,47.14,33.02,78.86,50.88c0.26-0.31,0.54-0.66,0.81-0.97
		c11.21-13.27,24.42-30.19,37.77-50.01c5.11-7.58,10.23-15.55,15.27-23.93c-0.05-0.03-0.16-0.09-0.21-0.12
		C1078.31,1087.72,1011.39,1049.25,968.1,998.59z M558.22,751.84c-2.52,25.58-8.72,53.11-18.99,84.1
		c-7.68,23.16-16.89,45.8-27.45,67.37c0,0,0,0,0,0c-10.51-21.56-19.75-44.23-27.48-67.5c-3.54-10.69-6.43-20.84-9.02-30.78
		c-4.89-18.77-8.29-36.44-9.93-53.19c-2.53-25.62-2.38-48.14,0.44-68.86c2.74-20.01,7.91-36.81,15.81-51.33
		c6.11-11.17,11.81-13.89,16.68-15.55c4.38-1.51,8.88-2.28,13.65-2.36c0,0,0,0,0,0c4.46,0.06,8.99,0.83,13.12,2.29
		c4.99,1.7,10.84,4.45,16.91,15.63c7.87,14.47,13.05,31.3,15.83,51.44c0.92,6.75,1.1,14.07,1.45,21.27
		C559.97,719.14,559.93,734.57,558.22,751.84z M951.97,751.84c-1.64,16.76-5.04,34.43-9.93,53.19c-2.59,9.94-5.48,20.09-9.02,30.78
		c-7.73,23.28-16.97,45.95-27.48,67.51c0,0,0,0,0,0c-10.55-21.57-19.77-44.21-27.44-67.37c-10.26-31-16.47-58.53-18.99-84.1
		c-1.7-17.28-1.75-32.71-1.03-47.47c0.35-7.19,0.53-14.52,1.45-21.27c2.78-20.14,7.96-36.98,15.83-51.44
		c6.07-11.17,11.92-13.93,16.91-15.63c4.13-1.45,8.66-2.23,13.12-2.29c0,0,0,0,0,0c4.78,0.08,9.28,0.85,13.66,2.36
		c4.87,1.66,10.57,4.38,16.68,15.55c7.9,14.52,13.07,31.32,15.81,51.33C954.35,703.7,954.5,726.22,951.97,751.84z"/>
	<path d="M511.8,477.8c63.38,0,114.77-50.93,114.77-113.76c0-62.83-51.38-113.77-114.77-113.77c-63.39,0-114.77,50.93-114.77,113.77
		C397.03,426.87,448.41,477.8,511.8,477.8z M511.8,321.49c23.71,0,42.92,19.05,42.92,42.55c0,23.5-19.22,42.55-42.92,42.55
		c-23.71,0-42.93-19.05-42.93-42.55C468.87,340.54,488.09,321.49,511.8,321.49z"/>
</g>
</svg>
