<svg xmlns="http://www.w3.org/2000/svg" xmlns:xlink="http://www.w3.org/1999/xlink" width="1200" height="630" viewBox="0 0 1200 630">
  <defs>
    <!-- subtle radial glow in center -->
    <radialGradient id="glow" cx="50%" cy="50%" r="55%">
      <stop offset="0%" stop-color="#3D7585" stop-opacity="1"/>
      <stop offset="100%" stop-color="#1E4A56" stop-opacity="1"/>
    </radialGradient>
    <!-- top-left decorative circle -->
    <circle id="dc" r="280" fill="none" stroke="#ffffff" stroke-opacity="0.04" stroke-width="1"/>
  </defs>

  <!-- background -->
  <rect width="1200" height="630" fill="url(#glow)"/>

  <!-- decorative circles (subtle) -->
  <use xlink:href="#dc" cx="-60" cy="-60"/>
  <use xlink:href="#dc" cx="1260" cy="690"/>
  <circle cx="1200" cy="0" r="400" fill="none" stroke="#CA8A71" stroke-opacity="0.06" stroke-width="1"/>

  <!-- accent horizontal line top -->
  <rect x="0" y="0" width="1200" height="3" fill="#CA8A71" opacity="0.7"/>
  <!-- accent horizontal line bottom -->
  <rect x="0" y="627" width="1200" height="3" fill="#CA8A71" opacity="0.7"/>

  <!-- logo-white.svg content, scaled and centered -->
  <!-- original viewBox: 0 0 850.39 283.46 -->
  <!-- target: ~640px wide → scale = 640/850.39 ≈ 0.7526 → height ≈ 213px -->
  <!-- centered: x offset = (1200-640)/2 = 280, y offset = (630-213)/2 ≈ 208 -->
  <g transform="translate(280, 200) scale(0.7526)">
    <style>.st0{fill:#FFFFFF;}</style>
    <path class="st0" d="M112.81,99.06c-27.17,0-45.83,21.25-45.83,47.31c0,27.91,20.51,47.87,48.05,47.87
      c17.74,0,32.34-8.32,40.29-23.84l-14.05-7.21c-5.36,9.98-15.34,14.79-26.43,14.79c-16.26,0-28.09-10.9-30.13-26.43h72.45v-7.39
      C157.17,118.83,140.16,99.06,112.81,99.06z M85.46,139.71c1.85-13.49,11.83-24.21,27.17-24.21c14.97,0,25.51,9.79,26.24,24.21
      H85.46z"/>
    <path class="st0" d="M189.87,126.96c0-7.21,7.39-11.64,15.89-11.64c8.32,0,15.71,2.77,19.59,10.72l14.05-7.95
      c-5.73-10.53-17.19-18.29-34.01-18.29c-19.77,0-33.82,11.64-33.82,27.54c0,34.56,51.93,20.14,51.93,39.18
      c0,7.95-7.95,12.2-18.3,12.2c-9.98,0-17.37-3.33-21.99-12.38l-14.05,7.76c7.02,13.49,19.96,20.14,36.78,20.14
      c19.22,0,35.86-10.9,35.86-28.09C241.8,131.95,189.87,145.44,189.87,126.96z"/>
    <path class="st0" d="M299.83,116.8c10.72,0,19.78,5.17,25.13,14.97l15.15-8.5c-8.32-16.26-23.66-23.84-40.29-23.84
      c-26.06-0.18-47.31,21.25-47.31,47.31c0,26.24,21.25,47.87,47.31,47.5c16.63,0,31.97-7.39,40.29-23.84l-15.15-8.32
      c-5.36,9.79-14.42,14.97-25.13,14.97c-15.89,0-29.02-13.68-29.02-30.31C270.81,130.29,283.93,116.8,299.83,116.8z"/>
    <path class="st0" d="M395.74,99.42c-27.54,0-48.24,21.44-48.24,47.31c0,26.24,19.22,47.68,45.47,47.68
      c14.79,0,26.8-7.02,33.64-18.11v15.89h17.37v-45.47C443.97,119.75,423.09,99.42,395.74,99.42z M395.74,177.05
      c-16.82,0-29.94-13.68-29.94-30.13c0-16.63,13.12-30.31,29.94-30.31c17,0,29.94,13.68,29.94,30.31
      C425.67,163.37,412.74,177.05,395.74,177.05z"/>
    <path class="st0" d="M512.9,99.42c-27.35,0-48.24,20.33-48.24,47.31v76.17h18.3v-41.98c7.39,8.13,18.48,13.49,30.68,13.49
      c27.54,0,47.31-20.33,47.31-47.68C560.95,120.86,540.25,99.42,512.9,99.42z M512.9,177.23c-17,0-29.94-13.86-29.94-30.31
      c0-16.63,12.94-30.13,29.94-30.13c16.82,0,29.76,13.49,29.76,30.13C542.65,163.37,529.71,177.23,512.9,177.23z"/>
    <path class="st0" d="M656.43,93.73c9.24,0,16.74-7.43,16.74-16.59c0-9.16-7.49-16.59-16.74-16.59c-9.24,0-16.74,7.43-16.74,16.59
      C639.69,86.31,647.18,93.73,656.43,93.73z M656.43,70.94c3.46,0,6.26,2.78,6.26,6.2c0,3.43-2.8,6.2-6.26,6.2
      c-3.46,0-6.26-2.78-6.26-6.2C650.17,73.72,652.97,70.94,656.43,70.94z"/>
    <path class="st0" d="M572.65,183.32c0.73,1.22,1.48,2.38,2.23,3.49c-0.74-1.16-1.48-2.34-2.2-3.51
      C572.68,183.3,572.66,183.31,572.65,183.32z"/>
    <path class="st0" d="M665.53,169.67c-0.06-0.07-0.11-0.13-0.16-0.2l0.12-0.19c1.18-1.91,2.29-3.88,3.31-5.88
      c2.09-4.11,3.91-8.47,5.4-12.96c1.83-5.53,2.95-10.55,3.42-15.34c0.48-4.86,0.44-9.23-0.12-13.36c-0.64-4.68-1.92-8.74-3.92-12.4
      c-2.42-4.44-5.93-7.47-10.44-9.02c-2.13-0.74-4.39-1.12-6.7-1.14h-0.02h0c-2.33,0.02-4.59,0.4-6.72,1.14
      c-4.51,1.55-8.02,4.58-10.44,9.02c-1.83,3.36-3.04,7.08-3.72,11.3c-0.06,0.37-0.14,0.72-0.19,1.1c-0.56,4.08-0.59,8.4-0.13,13.19
      c0.01,0.06,0,0.11,0.01,0.17c0.47,4.79,1.59,9.81,3.42,15.34c1.49,4.48,3.3,8.84,5.4,12.96c1.04,2.04,2.15,4.02,3.3,5.89l0.13,0.21
      l0.02,0.01c-4.17,6.46-11.46,10.76-19.78,10.76c-8.32,0-15.6-4.29-19.78-10.76l0.02-0.01l0.13-0.21c1.15-1.87,2.27-3.85,3.3-5.89
      c2.1-4.12,3.92-8.48,5.4-12.96c1.83-5.53,2.95-10.55,3.42-15.34c0.01-0.06,0-0.11,0.01-0.17c0.46-4.79,0.42-9.11-0.13-13.19
      c-0.05-0.38-0.13-0.73-0.19-1.1c-0.69-4.21-1.89-7.94-3.72-11.3c-2.42-4.44-5.93-7.47-10.44-9.02c-2.13-0.74-4.39-1.12-6.72-1.14h0
      h-0.02c-2.32,0.02-4.57,0.4-6.7,1.14c-4.51,1.55-8.02,4.58-10.44,9.02c-2,3.66-3.28,7.72-3.92,12.4c-0.56,4.13-0.6,8.5-0.13,13.36
      c0.47,4.79,1.59,9.82,3.42,15.34c1.49,4.48,3.31,8.84,5.4,12.96c1.02,2,2.13,3.98,3.31,5.88l0.12,0.19
      c-0.06,0.07-0.11,0.13-0.16,0.2c-6.31,7.39-16.07,13-17.18,13.62c0.71,1.17,1.45,2.35,2.2,3.51c1.95,2.89,3.87,5.36,5.51,7.29
      c0.04,0.05,0.08,0.1,0.12,0.14c4.63-2.6,8.55-5.21,11.5-7.42c1.68-1.19,3.37-2.55,5.09-4.1c0.4-0.35,0.79-0.69,1.19-1.07
      c0.12-0.12,0.24-0.21,0.37-0.33l0.31-0.31l0.48,0.45c0.17,0.16,0.34,0.3,0.51,0.45c6.86,7.49,16.73,12.22,27.74,12.22c0,0,0,0,0,0
      c0,0,0,0,0,0c11.01,0,20.88-4.73,27.74-12.22c0.17-0.16,0.34-0.29,0.51-0.45l0.48-0.45l0.31,0.31c0.12,0.12,0.24,0.21,0.37,0.33
      c0.4,0.38,0.8,0.72,1.19,1.07c1.73,1.54,3.42,2.9,5.09,4.1c2.95,2.2,6.87,4.81,11.5,7.42c0.04-0.04,0.08-0.1,0.12-0.14
      c1.64-1.94,3.56-4.4,5.51-7.29c0.74-1.11,1.49-2.27,2.23-3.49c-0.01,0-0.02-0.01-0.03-0.02
      C681.6,182.67,671.84,177.06,665.53,169.67z M605.76,133.7c-0.37,3.73-1.27,7.74-2.77,12.26c-1.12,3.38-2.46,6.68-4,9.82
      c0,0,0,0,0,0c-1.53-3.14-2.88-6.45-4.01-9.84c-0.52-1.56-0.94-3.04-1.31-4.49c-0.71-2.74-1.21-5.31-1.45-7.76
      c-0.37-3.74-0.35-7.02,0.06-10.04c0.4-2.92,1.15-5.37,2.31-7.48c0.89-1.63,1.72-2.03,2.43-2.27c0.64-0.22,1.29-0.33,1.99-0.34
      c0,0,0,0,0,0c0.65,0.01,1.31,0.12,1.91,0.33c0.73,0.25,1.58,0.65,2.47,2.28c1.15,2.11,1.9,4.56,2.31,7.5
      c0.13,0.98,0.16,2.05,0.21,3.1C606.01,128.93,606.01,131.18,605.76,133.7z M663.18,133.7c-0.24,2.44-0.73,5.02-1.45,7.76
      c-0.38,1.45-0.8,2.93-1.31,4.49c-1.13,3.39-2.47,6.7-4.01,9.84c0,0,0,0,0,0c-1.54-3.15-2.88-6.45-4-9.82
      c-1.5-4.52-2.4-8.53-2.77-12.26c-0.25-2.52-0.25-4.77-0.15-6.92c0.05-1.05,0.08-2.12,0.21-3.1c0.41-2.94,1.16-5.39,2.31-7.5
      c0.89-1.63,1.74-2.03,2.47-2.28c0.6-0.21,1.26-0.32,1.91-0.33c0,0,0,0,0,0c0.7,0.01,1.35,0.12,1.99,0.34
      c0.71,0.24,1.54,0.64,2.43,2.27c1.15,2.12,1.91,4.57,2.31,7.48C663.52,126.68,663.54,129.96,663.18,133.7z"/>
    <path class="st0" d="M598.99,93.73c9.24,0,16.74-7.43,16.74-16.59c0-9.16-7.49-16.59-16.74-16.59c-9.24,0-16.74,7.43-16.74,16.59
      C582.25,86.31,589.75,93.73,598.99,93.73z M598.99,70.94c3.46,0,6.26,2.78,6.26,6.2c0,3.43-2.8,6.2-6.26,6.2
      c-3.46,0-6.26-2.78-6.26-6.2C592.73,73.72,595.53,70.94,598.99,70.94z"/>
    <g>
      <path class="st0" d="M753.77,184.45c-1.49-0.75-2.99-1.57-4.57-2.01c-5.58-1.54-11.19-1.51-16.78-0.02
        c-2.14,0.57-4.24,1.35-5.92,3.04c-1.83,1.83-1.88,3.96,0.07,5.62c1.19,1.01,2.58,1.82,3.98,2.39c3.27,1.32,6.71,1.71,10.18,1.7
        c4.14-0.01,7.89-0.63,10.77-1.82c1.39-0.57,2.7-1.32,3.77-2.48c1.42-1.54,1.46-3.59,0.03-5.12
        C754.84,185.26,754.34,184.74,753.77,184.45z"/>
      <path class="st0" d="M740.6,173.23c-1.73,0-2.76-1.39-3.23-2.21c-0.97-1.75-1.41-3.81-1.42-6.7c-0.01-4.71,1.09-9.4,3.37-14.33
        c0.63-1.36,1.35-2.74,2.21-4.21l0.44-0.72c1.71-2.82,3.83-5.76,6.48-8.99c1.18-1.44,2.38-2.87,3.58-4.3
        c2.43-2.9,4.87-5.82,7.18-8.83c3.88-5.05,6.26-10.57,7.08-16.4c1.95-13.79-7.16-26.31-20.74-28.5c-1.58-0.26-3.17-0.39-4.7-0.39
        c-5.7,0-10.88,1.79-15.38,5.32c-4.92,3.86-7.97,9.03-9.06,15.37c-1.18,6.86,0.31,13.51,4.56,20.33
        c2.52,4.03,5.89,7.76,10.61,11.72l3.07,2.74c-2.42,3.33-4.4,6.57-6.05,9.88l-0.57,1.13c-0.09,0.17-0.17,0.34-0.25,0.51
        c-1.19,2.57-1.93,4.56-2.62,6.98l-3.17-3.4c-1.34-1.55-2.72-3.06-4.11-4.58c-2.87-3.13-5.83-6.36-8.36-9.97
        c-4.9-6.98-7.93-13.21-9.54-19.59c-1.81-7.19-1.81-14.3,0-21.14c0.14-0.55,0.28-1.02,0.42-1.48c0.14-0.45,0.24-0.78,0.35-1.11
        l0.07-0.2c0.88-2.56,1.97-5.01,3.28-7.38l0.2-0.34c0.32-0.57,0.66-1.11,1-1.65l0.29-0.43c7.79-12.41,21.14-19.81,35.72-19.81
        c23.24,0,42.14,18.9,42.14,42.14c0,5.62-1.1,11.09-3.26,16.25c0,0-0.17,0.52-0.22,0.63c-2.14,5.72-5.37,11.43-9.87,17.44
        c-3.02,4.03-6.2,8.17-9.06,11.88l-2.11,2.73c-2.08,2.7-4.16,5.41-6.22,8.12c-1.24,1.64-2.44,3.31-3.63,4.99l-0.15,0.21
        c-1.34,1.88-2.51,3.51-3.71,5.12c-0.83,1.11-1.63,1.92-2.37,2.41C742.08,172.98,741.33,173.23,740.6,173.23z"/>
    </g>
  </g>

  <!-- tagline -->
  <text x="600" y="455" text-anchor="middle" font-family="-apple-system, BlinkMacSystemFont, 'Segoe UI', Roboto, sans-serif"
        font-size="22" font-weight="400" letter-spacing="4" fill="#CA8A71" opacity="0.9">
    PRILAGOĐENA PUTOVANJA
  </text>
</svg>
